<svg width="256" height="256" viewBox="0 0 256 256" fill="none" xmlns="http://www.w3.org/2000/svg">
<path d="M127.777 255.554C198.346 255.554 255.554 198.346 255.554 127.777C255.554 57.2077 198.346 0 127.777 0C57.2077 0 0 57.2077 0 127.777C0 198.346 57.2077 255.554 127.777 255.554Z" fill="#0535C1"/>
<path d="M211.993 89.5405H204.348C201.108 80.3705 192.376 73.8105 182.104 73.8105C169.08 73.8105 158.51 84.3805 158.51 97.4045C158.51 110.431 169.08 121.002 182.104 121.002H211.993C220.679 120.998 227.72 113.957 227.723 105.27C227.719 96.5835 220.679 89.5435 211.993 89.5395V89.5405Z" fill="#EAEAEA"/>
<path d="M227.722 105.459V105.269C227.719 96.5831 220.679 89.5431 211.993 89.5391H204.126V89.9321H211.993C220.602 89.9331 227.61 96.8521 227.723 105.461V105.459H227.722Z" fill="white" fill-opacity="0.2"/>
<path d="M235.822 121.002H182.104L204.363 89.541L235.822 121.002Z" fill="url(#paint0_linear_369_831)"/>
<path d="M182.104 120.999C195.134 120.999 205.698 110.435 205.698 97.4045C205.698 84.3739 195.134 73.8105 182.104 73.8105C169.073 73.8105 158.51 84.3739 158.51 97.4045C158.51 110.435 169.073 120.999 182.104 120.999Z" fill="#EEEEEE"/>
<path d="M182.104 74.2032C195.066 74.2032 205.59 84.6642 205.701 97.6102V97.4232C205.7 84.3982 195.129 73.8262 182.104 73.8262C169.08 73.8262 158.51 84.3812 158.51 97.4062V97.5952C158.619 84.6642 169.143 74.2032 182.104 74.2032Z" fill="white" fill-opacity="0.2"/>
<path d="M211.993 120.607H182.104C169.145 120.607 158.621 110.147 158.51 97.2031V97.3931C158.51 110.417 169.08 120.986 182.104 120.986H211.993C220.679 120.983 227.719 113.943 227.723 105.257V105.07C227.614 113.68 220.605 120.606 211.993 120.61V120.607V120.607Z" fill="#212121" fill-opacity="0.1"/>
<path d="M211.993 89.5406H204.349C201.108 80.3706 192.376 73.8105 182.105 73.8105C169.08 73.8105 158.51 84.3805 158.51 97.4045C158.51 110.43 169.08 121.002 182.105 121.002H211.993C220.68 120.998 227.72 113.957 227.723 105.27C227.719 96.5845 220.679 89.5436 211.993 89.5396V89.5406Z" fill="url(#paint1_radial_369_831)"/>
<path d="M92.9292 53.7246H159.721V111.805H92.9292V53.7246Z" fill="#FFF176"/>
<path d="M85.667 142.295H165.528V222.156H85.667V142.295Z" fill="white"/>
<path d="M174.24 105.996H185.855V129.226H69.6958V105.996H81.3108V59.5292L127.777 30.4902L174.24 59.5302V105.995V105.996ZM151.007 105.996V72.4062L127.777 57.8902L104.544 72.4072V105.996H151.007Z" fill="#F4481E"/>
<path d="M64.5361 238.829L84.2161 105.994H171.336L191.015 238.83C172.369 249.471 150.783 255.55 127.777 255.55C104.77 255.55 83.1841 249.471 64.5371 238.83L64.5361 238.829ZM153.789 146.071L99.1341 163.831L92.4911 208.664L159.821 186.784L153.789 146.069V146.071V146.071Z" fill="#F4481E"/>
<path d="M174.129 129.226L190.366 238.83C171.72 249.471 150.134 255.55 127.128 255.55C104.121 255.55 82.5352 249.471 63.8882 238.83L80.1262 129.226H69.6962V105.996H81.3112V59.5292L127.777 30.4902L174.24 59.5302V105.995H185.855V129.225H174.13L174.129 129.226Z" fill="url(#paint2_linear_369_831)"/>
<path d="M127.777 105.997H81.311V59.5312L127.777 30.4922V105.997Z" fill="url(#paint3_linear_369_831)"/>
<path d="M127.777 255.551C105.603 255.563 83.8075 249.801 64.5371 238.831L79.0971 129.227H127.775V255.551H127.777Z" fill="url(#paint4_linear_369_831)"/>
<path d="M127.777 105.996H69.6959V129.228H127.777V105.996Z" fill="url(#paint5_linear_369_831)"/>
<path d="M127.777 255.554C198.346 255.554 255.554 198.346 255.554 127.777C255.554 57.2077 198.346 0 127.777 0C57.2077 0 0 57.2077 0 127.777C0 198.346 57.2077 255.554 127.777 255.554Z" fill="url(#paint6_radial_369_831)"/>
<path d="M92.9268 119.062H84.1048C80.3678 108.48 70.2948 100.912 58.4418 100.912C43.4138 100.912 31.2168 113.109 31.2168 128.137C31.2168 143.165 43.4138 155.362 58.4418 155.362H92.9258C102.946 155.362 111.078 147.232 111.078 137.212C111.078 127.194 102.945 119.062 92.9258 119.062H92.9268Z" fill="#FAFAFA"/>
<path d="M111.077 137.432V137.213C111.077 127.193 102.945 119.061 92.927 119.061H83.853V119.516H92.926C102.859 119.516 110.946 127.499 111.078 137.431L111.077 137.432Z" fill="white" fill-opacity="0.2"/>
<path d="M120.423 155.362H58.4419L84.1249 119.061L120.423 155.362Z" fill="url(#paint7_linear_369_831)"/>
<path d="M58.4418 155.362C73.4777 155.362 85.6668 143.173 85.6668 128.137C85.6668 113.101 73.4777 100.912 58.4418 100.912C43.4058 100.912 31.2168 113.101 31.2168 128.137C31.2168 143.173 43.4058 155.362 58.4418 155.362Z" fill="white"/>
<path d="M58.4418 101.366C73.3978 101.366 85.5408 113.436 85.6668 128.373V128.155C85.6668 113.127 73.4698 100.93 58.4418 100.93C43.4138 100.93 31.2168 113.11 31.2168 128.138V128.356C31.3428 113.436 43.4858 101.366 58.4418 101.366Z" fill="white" fill-opacity="0.2"/>
<path d="M92.9268 154.909H58.4408C43.4858 154.909 31.3428 142.839 31.2168 127.902V128.12C31.2168 143.148 43.4138 155.345 58.4418 155.345H92.9258C102.946 155.345 111.078 147.212 111.078 137.193V136.975C110.949 146.905 102.873 154.909 92.9258 154.909H92.9268Z" fill="#212121" fill-opacity="0.1"/>
<path d="M92.9268 119.062H84.1058C80.3678 108.481 70.2948 100.912 58.4418 100.912C43.4138 100.912 31.2168 113.109 31.2168 128.137C31.2168 143.165 43.4138 155.362 58.4418 155.362H92.9268C102.945 155.362 111.078 147.232 111.078 137.213C111.078 127.194 102.945 119.062 92.9268 119.062Z" fill="url(#paint8_radial_369_831)"/>
<g opacity="0.1">
<path opacity="0.1" d="M127.777 1.335C198.127 1.335 255.174 58.181 255.538 128.443C255.538 128.225 255.551 128.008 255.551 127.777C255.551 57.21 198.344 0 127.777 0C57.21 0 0 57.21 0 127.777C0 127.994 0.015 128.212 0.015 128.443C0.377 58.181 57.427 1.335 127.777 1.335Z" fill="white"/>
<path opacity="0.1" d="M255.538 127.108C255.174 197.37 198.126 254.216 127.777 254.216C57.427 254.216 0.377 197.37 0.015 127.108C0.015 127.341 0 127.558 0 127.777C0 198.344 57.21 255.55 127.777 255.55C198.344 255.55 255.551 198.343 255.551 127.776C255.551 127.558 255.538 127.34 255.538 127.107V127.108Z" fill="#263238"/>
</g>
<path d="M127.777 255.554C198.346 255.554 255.554 198.346 255.554 127.777C255.554 57.2077 198.346 0 127.777 0C57.2077 0 0 57.2077 0 127.777C0 198.346 57.2077 255.554 127.777 255.554Z" fill="url(#paint9_radial_369_831)"/>
<defs>
<linearGradient id="paint0_linear_369_831" x1="208.96" y1="89.6121" x2="208.96" y2="120.915" gradientUnits="userSpaceOnUse">
<stop stop-color="#212121" stop-opacity="0.04"/>
<stop offset="0.66" stop-color="#212121" stop-opacity="0"/>
</linearGradient>
<radialGradient id="paint1_radial_369_831" cx="0" cy="0" r="1" gradientUnits="userSpaceOnUse" gradientTransform="translate(112.876 80.5442) scale(68.2214 68.2217)">
<stop stop-color="white" stop-opacity="0.1"/>
<stop offset="1" stop-color="white" stop-opacity="0"/>
</radialGradient>
<linearGradient id="paint2_linear_369_831" x1="110.212" y1="76.308" x2="199.684" y2="223.739" gradientUnits="userSpaceOnUse">
<stop stop-color="white" stop-opacity="0.1"/>
<stop offset="1" stop-color="white" stop-opacity="0"/>
</linearGradient>
<linearGradient id="paint3_linear_369_831" x1="113.342" y1="80.1413" x2="90.2153" y2="68.8827" gradientUnits="userSpaceOnUse">
<stop stop-color="#262626" stop-opacity="0.1"/>
<stop offset="1" stop-color="#262626" stop-opacity="0"/>
</linearGradient>
<linearGradient id="paint4_linear_369_831" x1="104.082" y1="145.757" x2="39.0819" y2="221.531" gradientUnits="userSpaceOnUse">
<stop stop-color="#262626" stop-opacity="0.1"/>
<stop offset="1" stop-color="#262626" stop-opacity="0"/>
</linearGradient>
<linearGradient id="paint5_linear_369_831" x1="127.777" y1="117.612" x2="69.6959" y2="117.612" gradientUnits="userSpaceOnUse">
<stop stop-color="#262626" stop-opacity="0.1"/>
<stop offset="1" stop-color="#262626" stop-opacity="0"/>
</linearGradient>
<radialGradient id="paint6_radial_369_831" cx="0" cy="0" r="1" gradientUnits="userSpaceOnUse" gradientTransform="translate(37.0272 37.27) scale(255.485)">
<stop stop-color="white" stop-opacity="0.1"/>
<stop offset="1" stop-color="white" stop-opacity="0"/>
</radialGradient>
<linearGradient id="paint7_linear_369_831" x1="89.4287" y1="119.143" x2="89.4287" y2="155.262" gradientUnits="userSpaceOnUse">
<stop stop-color="#212121" stop-opacity="0.04"/>
<stop offset="0.66" stop-color="#212121" stop-opacity="0"/>
</linearGradient>
<radialGradient id="paint8_radial_369_831" cx="0" cy="0" r="1" gradientUnits="userSpaceOnUse" gradientTransform="translate(26.818 108.682) scale(78.7173)">
<stop stop-color="white" stop-opacity="0.1"/>
<stop offset="1" stop-color="white" stop-opacity="0"/>
</radialGradient>
<radialGradient id="paint9_radial_369_831" cx="0" cy="0" r="1" gradientUnits="userSpaceOnUse" gradientTransform="translate(37.0272 37.27) scale(255.485)">
<stop stop-color="white" stop-opacity="0.1"/>
<stop offset="1" stop-color="white" stop-opacity="0"/>
</radialGradient>
</defs>
</svg>
