<?xml version="1.0" standalone="no"?>
<!DOCTYPE svg PUBLIC "-//W3C//DTD SVG 20010904//EN"
 "http://www.w3.org/TR/2001/REC-SVG-20010904/DTD/svg10.dtd">
<svg version="1.0" xmlns="http://www.w3.org/2000/svg"
 width="128.000000pt" height="128.000000pt" viewBox="0 0 128.000000 128.000000"
 preserveAspectRatio="xMidYMid meet">

<g transform="translate(0.000000,128.000000) scale(0.100000,-0.100000)"
fill="#000000" stroke="none">
<path d="M562 1269 c-147 -19 -257 -74 -367 -184 -44 -44 -90 -99 -102 -123
l-22 -42 25 -25 c37 -37 79 -135 113 -266 36 -138 66 -223 87 -240 11 -9 21
-9 38 -1 29 13 55 77 97 241 37 145 89 255 132 282 42 25 112 25 154 0 43 -27
95 -137 133 -283 35 -137 65 -222 85 -238 23 -19 56 -1 75 43 10 23 37 109 60
190 42 154 75 233 114 272 l23 23 -21 43 c-33 71 -170 200 -257 243 -120 58
-246 81 -367 65z"/>
<path d="M611 801 c-20 -20 -52 -113 -96 -276 -32 -120 -78 -211 -120 -236
-41 -25 -109 -24 -151 2 -46 28 -96 133 -134 281 -34 132 -67 228 -80 228 -12
0 -25 -104 -22 -184 5 -160 67 -301 182 -416 41 -42 96 -88 123 -103 128 -75
269 -103 417 -83 247 32 464 228 525 473 16 63 22 168 12 233 -3 19 -5 45 -6
58 -3 70 -44 -21 -92 -207 -37 -145 -89 -255 -132 -282 -41 -25 -113 -25 -150
0 -57 37 -90 106 -137 285 -39 150 -67 224 -90 236 -25 13 -27 13 -49 -9z"/>
</g>
</svg>
