<?xml version="1.0" encoding="UTF-8"?>
<svg xmlns="http://www.w3.org/2000/svg" xmlns:xlink="http://www.w3.org/1999/xlink" width="100px" height="115px" viewBox="0 0 100 114" version="1.1">
<g id="surface1">
<path style=" stroke:none;fill-rule:nonzero;fill:rgb(91.372549%,79.215686%,19.607843%);fill-opacity:1;" d="M 8.375 102.058594 L 0 0.191406 L 100 0.394531 L 91.144531 102.058594 L 50.378906 113.808594 Z M 8.375 102.058594 "/>
<path style=" stroke:none;fill-rule:nonzero;fill:rgb(100%,87.058824%,14.509804%);fill-opacity:1;" d="M 50.378906 103.972656 L 50.378906 9.890625 L 91.558594 10.027344 L 84.214844 94.199219 Z M 50.378906 103.972656 "/>
<path style=" stroke:none;fill-rule:nonzero;fill:rgb(100%,100%,100%);fill-opacity:1;" d="M 45.96875 21.0625 L 35.082031 21.0625 L 35.082031 83.679688 L 26.613281 82.074219 L 26.613281 73.644531 L 16.53125 72.039062 L 16.53125 90.90625 L 45.96875 98.53125 Z M 54.132812 21.0625 L 84.273438 21.0625 L 82.257812 33.0625 L 65.640625 33.0625 L 65.640625 52.757812 L 82.257812 52.757812 L 80.242188 92.511719 L 54.132812 98.53125 L 54.132812 86.089844 L 71.773438 80.066406 L 72.792969 63.609375 L 54.132812 66.300781 Z M 54.132812 21.0625 "/>
</g>
</svg>
